<?xml version="1.0" encoding="UTF-8"?>
<svg xmlns="http://www.w3.org/2000/svg" xmlns:xlink="http://www.w3.org/1999/xlink" width="1500pt" height="262.499992pt" viewBox="0 0 1500 262.499992">
<defs>
<clipPath id="clip-0">
<path clip-rule="nonzero" d="M 206.109375 3.332031 L 393 3.332031 L 393 233.167969 L 206.109375 233.167969 Z M 206.109375 3.332031 "/>
</clipPath>
<clipPath id="clip-1">
<path clip-rule="nonzero" d="M 272.128906 229.832031 C 303.546875 229.832031 317.445312 220.707031 333.292969 202.441406 C 349.132812 184.183594 357.058594 155.851562 357.058594 117.445312 C 357.058594 79.316406 349.203125 51.320312 333.492188 33.457031 C 317.78125 15.597656 303.8125 6.667969 272.128906 6.667969 L 266.488281 6.667969 C 259.773438 6.667969 256.417969 10.03125 256.417969 16.742188 L 256.417969 219.761719 C 256.417969 226.476562 259.773438 229.832031 266.488281 229.832031 Z M 272.128906 3.445312 C 310.257812 3.445312 339.933594 12.980469 361.152344 32.046875 C 382.363281 51.117188 392.976562 79.578125 392.976562 117.445312 C 392.976562 136.246094 390.21875 152.890625 384.71875 167.394531 C 379.210938 181.894531 371.222656 193.980469 360.75 203.648438 C 350.277344 213.316406 337.585938 220.636719 322.683594 225.601562 C 307.777344 230.574219 290.921875 233.054688 272.128906 233.054688 L 235.976562 233.054688 C 225.230469 233.054688 219.863281 227.6875 219.863281 216.941406 L 219.863281 24.625 C 219.863281 3.390625 192.980469 3.445312 214.460938 3.445312 Z M 272.128906 3.445312 "/>
</clipPath>
<clipPath id="clip-2">
<path clip-rule="nonzero" d="M 0.109375 0.332031 L 187 0.332031 L 187 230.167969 L 0.109375 230.167969 Z M 0.109375 0.332031 "/>
</clipPath>
<clipPath id="clip-3">
<path clip-rule="nonzero" d="M 66.128906 226.832031 C 97.546875 226.832031 111.445312 217.707031 127.292969 199.441406 C 143.132812 181.183594 151.058594 152.851562 151.058594 114.445312 C 151.058594 76.316406 143.203125 48.320312 127.492188 30.457031 C 111.78125 12.597656 97.8125 3.667969 66.128906 3.667969 L 60.488281 3.667969 C 53.773438 3.667969 50.417969 7.03125 50.417969 13.742188 L 50.417969 216.761719 C 50.417969 223.476562 53.773438 226.832031 60.488281 226.832031 Z M 66.128906 0.445312 C 104.257812 0.445312 133.933594 9.980469 155.152344 29.046875 C 176.363281 48.117188 186.976562 76.578125 186.976562 114.445312 C 186.976562 133.246094 184.21875 149.890625 178.71875 164.394531 C 173.210938 178.894531 165.222656 190.980469 154.75 200.648438 C 144.277344 210.316406 131.585938 217.636719 116.683594 222.601562 C 101.777344 227.574219 84.921875 230.054688 66.128906 230.054688 L 29.976562 230.054688 C 19.230469 230.054688 13.863281 224.6875 13.863281 213.941406 L 13.863281 21.625 C 13.863281 0.390625 -13.019531 0.445312 8.460938 0.445312 Z M 66.128906 0.445312 "/>
</clipPath>
<clipPath id="clip-4">
<rect x="0" y="0" width="187" height="231"/>
</clipPath>
<g id="source-6" clip-path="url(#clip-4)">
<g clip-path="url(#clip-2)">
<g clip-path="url(#clip-3)">
<rect x="-752" y="-111.549997" width="2592" height="453.599987" fill="rgb(100%, 100%, 100%)" fill-opacity="1"/>
</g>
</g>
</g>
<clipPath id="clip-5">
<path clip-rule="nonzero" d="M 381.574219 3.332031 L 608.566406 3.332031 L 608.566406 235.066406 L 381.574219 235.066406 Z M 381.574219 3.332031 "/>
</clipPath>
<clipPath id="clip-6">
<path clip-rule="nonzero" d="M 505.363281 214.925781 C 507.238281 220.835938 511.535156 223.789062 518.25 223.789062 C 524.15625 223.789062 528.050781 221.371094 529.933594 216.539062 L 604.859375 3.445312 L 608.484375 3.445312 L 533.15625 217.34375 C 531.003906 223.523438 527.78125 228.019531 523.488281 230.839844 C 519.1875 233.65625 510.109375 235.066406 500.480469 235.066406 C 486.242188 235.066406 473.167969 229.164062 468.875 217.34375 L 397.660156 16.203125 C 391.429688 1.785156 365.503906 3.636719 396.863281 3.445312 L 414.324219 3.445312 C 424.796875 3.445312 431.910156 8.550781 435.671875 18.753906 Z M 505.363281 214.925781 "/>
</clipPath>
<clipPath id="clip-7">
<path clip-rule="nonzero" d="M 0.574219 0.332031 L 227.566406 0.332031 L 227.566406 232.066406 L 0.574219 232.066406 Z M 0.574219 0.332031 "/>
</clipPath>
<clipPath id="clip-8">
<path clip-rule="nonzero" d="M 124.363281 211.925781 C 126.238281 217.835938 130.535156 220.789062 137.25 220.789062 C 143.15625 220.789062 147.050781 218.371094 148.933594 213.539062 L 223.859375 0.445312 L 227.484375 0.445312 L 152.15625 214.34375 C 150.003906 220.523438 146.78125 225.019531 142.488281 227.839844 C 138.1875 230.65625 129.109375 232.066406 119.480469 232.066406 C 105.242188 232.066406 92.167969 226.164062 87.875 214.34375 L 16.660156 13.203125 C 10.429688 -1.214844 -15.496094 0.636719 15.863281 0.445312 L 33.324219 0.445312 C 43.796875 0.445312 50.910156 5.550781 54.671875 15.753906 Z M 124.363281 211.925781 "/>
</clipPath>
<clipPath id="clip-9">
<rect x="0" y="0" width="228" height="233"/>
</clipPath>
<g id="source-9" clip-path="url(#clip-9)">
<g clip-path="url(#clip-7)">
<g clip-path="url(#clip-8)">
<path fill-rule="nonzero" fill="rgb(100%, 100%, 100%)" fill-opacity="1" d="M -381 -2.246094 L 228.105469 -2.246094 L 228.105469 232.746094 L -381 232.746094 Z M -381 -2.246094 "/>
</g>
</g>
</g>
<clipPath id="clip-10">
<path clip-rule="nonzero" d="M 0.679688 1.433594 L 205.972656 1.433594 L 205.972656 234.796875 L 0.679688 234.796875 Z M 0.679688 1.433594 "/>
</clipPath>
<clipPath id="clip-11">
<path clip-rule="nonzero" d="M 119.324219 19.15625 C 112.070312 3.390625 107.875 1.433594 83.359375 1.433594 C 76.109375 1.433594 70.332031 2.839844 66.039062 5.660156 C 61.742188 8.480469 58.519531 12.980469 56.371094 19.15625 L 6.421875 160.144531 C -1.371094 182.4375 -1.230469 200.425781 6.824219 214.121094 C 14.882812 227.816406 29.382812 234.664062 50.328125 234.664062 C 63.753906 234.664062 75.367188 231.582031 85.171875 225.402344 C 94.972656 219.226562 102.757812 210.699219 108.539062 199.820312 C 114.308594 188.945312 117.867188 175.992188 119.210938 160.949219 C 120.214844 149.6875 119.492188 128.128906 115.589844 118.75 C 112.722656 111.851562 106.070312 105.460938 101.886719 103.609375 C 97.070312 101.480469 89.433594 100.464844 83.601562 101.851562 C 72.105469 104.589844 63.285156 110.554688 63.101562 122.128906 C 62.867188 136.601562 74.96875 148.953125 89.582031 148.335938 C 95.40625 148.085938 99.425781 146.535156 103.925781 144.816406 C 109.015625 142.871094 114.851562 141.390625 115.40625 148.984375 C 116.371094 162.167969 114.585938 166.453125 112.363281 173.4375 C 108.601562 185.257812 103.40625 189.507812 94.140625 195.953125 C 84.875 202.394531 72.992188 205.621094 58.492188 205.621094 C 37.542969 205.621094 23.777344 199.113281 17.203125 186.082031 C 10.617188 173.0625 10.3125 159.207031 18.910156 134.765625 L 59.59375 19.960938 C 61.207031 15.128906 65.09375 12.710938 71.277344 12.710938 C 77.984375 12.710938 82.285156 15.667969 84.167969 21.574219 L 126.296875 140.234375 L 126.261719 140.246094 L 153.855469 217.75 C 157.34375 227.957031 164.460938 233.054688 175.203125 233.054688 L 198.492188 233.054688 C 217.011719 233.054688 195.964844 233.894531 189.851562 219.078125 Z M 119.324219 19.15625 "/>
</clipPath>
<clipPath id="clip-12">
<path clip-rule="nonzero" d="M 0.679688 0.433594 L 205.972656 0.433594 L 205.972656 233.679688 L 0.679688 233.679688 Z M 0.679688 0.433594 "/>
</clipPath>
<clipPath id="clip-13">
<path clip-rule="nonzero" d="M 119.324219 18.15625 C 112.070312 2.390625 107.875 0.433594 83.359375 0.433594 C 76.109375 0.433594 70.332031 1.839844 66.039062 4.660156 C 61.742188 7.480469 58.519531 11.980469 56.371094 18.15625 L 6.421875 159.144531 C -1.371094 181.4375 -1.230469 199.425781 6.824219 213.121094 C 14.882812 226.816406 29.382812 233.664062 50.328125 233.664062 C 63.753906 233.664062 75.367188 230.582031 85.171875 224.402344 C 94.972656 218.226562 102.757812 209.699219 108.539062 198.820312 C 114.308594 187.945312 117.867188 174.992188 119.210938 159.949219 C 120.214844 148.6875 119.492188 127.128906 115.589844 117.75 C 112.722656 110.851562 106.070312 104.460938 101.886719 102.609375 C 97.070312 100.480469 89.433594 99.464844 83.601562 100.851562 C 72.105469 103.589844 63.285156 109.554688 63.101562 121.128906 C 62.867188 135.601562 74.96875 147.953125 89.582031 147.335938 C 95.40625 147.085938 99.425781 145.535156 103.925781 143.816406 C 109.015625 141.871094 114.851562 140.390625 115.40625 147.984375 C 116.371094 161.167969 114.585938 165.453125 112.363281 172.4375 C 108.601562 184.257812 103.40625 188.507812 94.140625 194.953125 C 84.875 201.394531 72.992188 204.621094 58.492188 204.621094 C 37.542969 204.621094 23.777344 198.113281 17.203125 185.082031 C 10.617188 172.0625 10.3125 158.207031 18.910156 133.765625 L 59.59375 18.960938 C 61.207031 14.128906 65.09375 11.710938 71.277344 11.710938 C 77.984375 11.710938 82.285156 14.667969 84.167969 20.574219 L 126.296875 139.234375 L 126.261719 139.246094 L 153.855469 216.75 C 157.34375 226.957031 164.460938 232.054688 175.203125 232.054688 L 198.492188 232.054688 C 217.011719 232.054688 195.964844 232.894531 189.851562 218.078125 Z M 119.324219 18.15625 "/>
</clipPath>
<clipPath id="clip-14">
<rect x="0" y="0" width="206" height="234"/>
</clipPath>
<g id="source-12" clip-path="url(#clip-14)">
<g clip-path="url(#clip-12)">
<g clip-path="url(#clip-13)">
<rect x="-546" y="-109.549997" width="2592" height="453.599987" fill="rgb(100%, 100%, 100%)" fill-opacity="1"/>
</g>
</g>
</g>
<clipPath id="clip-15">
<path clip-rule="nonzero" d="M 623.1875 3.316406 L 775.933594 3.316406 L 775.933594 233.589844 L 623.1875 233.589844 Z M 623.1875 3.316406 "/>
</clipPath>
<clipPath id="clip-16">
<path clip-rule="nonzero" d="M 763.851562 106.5625 C 763.851562 120.09375 764.160156 108.179688 759.6875 108.179688 L 683.6875 108.179688 C 677.234375 108.179688 672.007812 113.410156 672.007812 119.859375 L 672.007812 218.152344 C 672.007812 224.605469 677.234375 229.832031 683.6875 229.832031 L 774.324219 229.832031 C 775.214844 229.832031 775.933594 230.550781 775.933594 231.441406 L 775.933594 231.453125 C 775.933594 232.335938 775.21875 233.054688 774.332031 233.058594 L 626.53125 233.546875 C 615.789062 233.546875 635.453125 234.757812 635.453125 217.4375 L 635.453125 20.050781 C 635.453125 4.253906 615.789062 3.9375 626.53125 3.9375 L 774.320312 3.453125 C 775.210938 3.449219 775.933594 4.167969 775.933594 5.0625 C 775.933594 5.949219 775.214844 6.667969 774.324219 6.667969 L 683.6875 6.667969 C 677.234375 6.667969 672.007812 11.898438 672.007812 18.347656 L 672.007812 93.277344 C 672.007812 99.726562 677.234375 104.957031 683.683594 104.957031 L 759.683594 104.957031 C 764.316406 104.957031 763.847656 92.53125 763.847656 106.5625 "/>
</clipPath>
<clipPath id="clip-17">
<path clip-rule="nonzero" d="M 0.28125 0.320312 L 152.933594 0.320312 L 152.933594 230.589844 L 0.28125 230.589844 Z M 0.28125 0.320312 "/>
</clipPath>
<clipPath id="clip-18">
<path clip-rule="nonzero" d="M 140.851562 103.5625 C 140.851562 117.09375 141.160156 105.179688 136.6875 105.179688 L 60.6875 105.179688 C 54.234375 105.179688 49.007812 110.410156 49.007812 116.859375 L 49.007812 215.152344 C 49.007812 221.605469 54.234375 226.832031 60.6875 226.832031 L 151.324219 226.832031 C 152.214844 226.832031 152.933594 227.550781 152.933594 228.441406 L 152.933594 228.453125 C 152.933594 229.335938 152.21875 230.054688 151.332031 230.058594 L 3.53125 230.546875 C -7.210938 230.546875 12.453125 231.757812 12.453125 214.4375 L 12.453125 17.050781 C 12.453125 1.253906 -7.210938 0.9375 3.53125 0.9375 L 151.320312 0.453125 C 152.210938 0.449219 152.933594 1.167969 152.933594 2.0625 C 152.933594 2.949219 152.214844 3.667969 151.324219 3.667969 L 60.6875 3.667969 C 54.234375 3.667969 49.007812 8.898438 49.007812 15.347656 L 49.007812 90.277344 C 49.007812 96.726562 54.234375 101.957031 60.683594 101.957031 L 136.683594 101.957031 C 141.316406 101.957031 140.847656 89.53125 140.847656 103.5625 "/>
</clipPath>
<clipPath id="clip-19">
<rect x="0" y="0" width="153" height="231"/>
</clipPath>
<g id="source-15" clip-path="url(#clip-19)">
<g clip-path="url(#clip-17)">
<g clip-path="url(#clip-18)">
<path fill-rule="nonzero" fill="rgb(100%, 100%, 100%)" fill-opacity="1" d="M 0.324219 0.453125 L 152.933594 0.453125 L 152.933594 230.589844 L 0.324219 230.589844 Z M 0.324219 0.453125 "/>
</g>
</g>
</g>
<clipPath id="clip-20">
<path clip-rule="nonzero" d="M 792.289062 1.027344 L 996.902344 1.027344 L 996.902344 235.472656 L 792.289062 235.472656 Z M 792.289062 1.027344 "/>
</clipPath>
<clipPath id="clip-21">
<path clip-rule="nonzero" d="M 898.484375 118.652344 C 893.109375 98.246094 888.277344 81.328125 883.984375 67.898438 C 879.683594 54.472656 875.65625 43.726562 871.898438 35.671875 C 868.136719 27.613281 864.578125 21.914062 861.222656 18.550781 C 861.023438 18.351562 860.824219 18.15625 860.625 17.96875 C 853.4375 11.238281 841.6875 16.34375 841.6875 26.1875 L 841.6875 230.660156 C 841.6875 231.984375 840.613281 233.054688 839.296875 233.054688 L 795.46875 233.054688 C 784.726562 233.054688 804.640625 233.273438 804.640625 216.941406 L 804.640625 25.601562 C 804.640625 17.542969 806.71875 11.4375 810.882812 7.273438 C 815.042969 3.109375 824.761719 1.027344 832.011719 1.027344 C 844.113281 1.027344 850.679688 2.777344 855.785156 6.265625 C 860.882812 9.757812 865.855469 15.933594 870.691406 24.796875 C 875.523438 33.660156 880.421875 45.609375 885.390625 60.648438 C 890.359375 75.691406 895.796875 94.753906 901.707031 117.847656 C 907.074219 137.988281 911.976562 154.84375 916.410156 168.402344 C 920.839844 181.96875 924.929688 192.773438 928.695312 200.828125 C 932.453125 208.886719 936.078125 214.597656 939.570312 217.949219 C 943.058594 221.308594 946.417969 222.988281 949.644531 222.988281 C 955.546875 222.988281 958.503906 219.902344 958.503906 213.722656 L 958.503906 19.3125 C 958.503906 3.515625 939.550781 3.445312 948.3125 3.445312 L 979.121094 3.445312 C 988.882812 3.445312 996.792969 11.359375 996.792969 21.117188 L 996.792969 210.898438 C 996.792969 218.957031 994.710938 225.066406 990.550781 229.226562 C 986.382812 233.386719 981.484375 235.472656 967.65625 235.472656 C 954.074219 235.472656 949.101562 233.65625 944.003906 230.03125 C 938.898438 226.40625 933.996094 220.164062 929.300781 211.300781 C 924.601562 202.4375 919.835938 190.492188 915 175.449219 C 910.167969 160.414062 904.660156 141.480469 898.484375 118.652344 "/>
</clipPath>
<clipPath id="clip-22">
<path clip-rule="nonzero" d="M 0.289062 0.0273438 L 204.902344 0.0273438 L 204.902344 234.472656 L 0.289062 234.472656 Z M 0.289062 0.0273438 "/>
</clipPath>
<clipPath id="clip-23">
<path clip-rule="nonzero" d="M 106.484375 117.652344 C 101.109375 97.246094 96.277344 80.328125 91.984375 66.898438 C 87.683594 53.472656 83.65625 42.726562 79.898438 34.671875 C 76.136719 26.613281 72.578125 20.914062 69.222656 17.550781 C 69.023438 17.351562 68.824219 17.15625 68.625 16.96875 C 61.4375 10.238281 49.6875 15.34375 49.6875 25.1875 L 49.6875 229.660156 C 49.6875 230.984375 48.613281 232.054688 47.296875 232.054688 L 3.46875 232.054688 C -7.273438 232.054688 12.640625 232.273438 12.640625 215.941406 L 12.640625 24.601562 C 12.640625 16.542969 14.71875 10.4375 18.882812 6.273438 C 23.042969 2.109375 32.761719 0.0273438 40.011719 0.0273438 C 52.113281 0.0273438 58.679688 1.777344 63.785156 5.265625 C 68.882812 8.757812 73.855469 14.933594 78.691406 23.796875 C 83.523438 32.660156 88.421875 44.609375 93.390625 59.648438 C 98.359375 74.691406 103.796875 93.753906 109.707031 116.847656 C 115.074219 136.988281 119.976562 153.84375 124.410156 167.402344 C 128.839844 180.96875 132.929688 191.773438 136.695312 199.828125 C 140.453125 207.886719 144.078125 213.597656 147.570312 216.949219 C 151.058594 220.308594 154.417969 221.988281 157.644531 221.988281 C 163.546875 221.988281 166.503906 218.902344 166.503906 212.722656 L 166.503906 18.3125 C 166.503906 2.515625 147.550781 2.445312 156.3125 2.445312 L 187.121094 2.445312 C 196.882812 2.445312 204.792969 10.359375 204.792969 20.117188 L 204.792969 209.898438 C 204.792969 217.957031 202.710938 224.066406 198.550781 228.226562 C 194.382812 232.386719 189.484375 234.472656 175.65625 234.472656 C 162.074219 234.472656 157.101562 232.65625 152.003906 229.03125 C 146.898438 225.40625 141.996094 219.164062 137.300781 210.300781 C 132.601562 201.4375 127.835938 189.492188 123 174.449219 C 118.167969 159.414062 112.660156 140.480469 106.484375 117.652344 "/>
</clipPath>
<clipPath id="clip-24">
<rect x="0" y="0" width="205" height="235"/>
</clipPath>
<g id="source-18" clip-path="url(#clip-24)">
<g clip-path="url(#clip-22)">
<g clip-path="url(#clip-23)">
<path fill-rule="nonzero" fill="rgb(100%, 100%, 100%)" fill-opacity="1" d="M 0.289062 0.0273438 L 204.765625 0.0273438 L 204.765625 234.472656 L 0.289062 234.472656 Z M 0.289062 0.0273438 "/>
</g>
</g>
</g>
<clipPath id="clip-25">
<path clip-rule="nonzero" d="M 1040.183594 3.167969 L 1104.152344 3.167969 L 1104.152344 233.15625 L 1040.183594 233.15625 Z M 1040.183594 3.167969 "/>
</clipPath>
<clipPath id="clip-26">
<path clip-rule="nonzero" d="M 1052.429688 19.757812 C 1052.429688 10.75 1059.730469 3.445312 1068.742188 3.445312 L 1101.15625 3.445312 C 1111.894531 3.445312 1090.292969 0.675781 1090.292969 19.558594 L 1090.292969 218.347656 C 1090.292969 226.472656 1083.710938 233.054688 1075.589844 233.054688 L 1043.378906 233.054688 C 1032.636719 233.054688 1052.429688 233.769531 1052.429688 216.941406 Z M 1052.429688 19.757812 "/>
</clipPath>
<clipPath id="clip-27">
<path clip-rule="nonzero" d="M 0.183594 0.167969 L 64.152344 0.167969 L 64.152344 230.15625 L 0.183594 230.15625 Z M 0.183594 0.167969 "/>
</clipPath>
<clipPath id="clip-28">
<path clip-rule="nonzero" d="M 12.429688 16.757812 C 12.429688 7.75 19.730469 0.445312 28.742188 0.445312 L 61.15625 0.445312 C 71.894531 0.445312 50.292969 -2.324219 50.292969 16.558594 L 50.292969 215.347656 C 50.292969 223.472656 43.710938 230.054688 35.589844 230.054688 L 3.378906 230.054688 C -7.363281 230.054688 12.429688 230.769531 12.429688 213.941406 Z M 12.429688 16.757812 "/>
</clipPath>
<clipPath id="clip-29">
<rect x="0" y="0" width="65" height="231"/>
</clipPath>
<g id="source-21" clip-path="url(#clip-29)">
<g clip-path="url(#clip-27)">
<g clip-path="url(#clip-28)">
<path fill-rule="nonzero" fill="rgb(100%, 100%, 100%)" fill-opacity="1" d="M 0.183594 0.304688 L 64.152344 0.304688 L 64.152344 230.019531 L 0.183594 230.019531 Z M 0.183594 0.304688 "/>
</g>
</g>
</g>
<clipPath id="clip-30">
<path clip-rule="nonzero" d="M 1135.398438 3.445312 L 1318.828125 3.445312 L 1318.828125 233.105469 L 1135.398438 233.105469 Z M 1135.398438 3.445312 "/>
</clipPath>
<clipPath id="clip-31">
<path clip-rule="nonzero" d="M 1225.324219 125.097656 C 1237.40625 122.148438 1246.332031 115.230469 1252.113281 104.355469 C 1257.882812 93.480469 1260.773438 80.386719 1260.773438 65.078125 C 1260.773438 44.9375 1255.734375 30.167969 1245.667969 20.765625 C 1235.59375 11.371094 1229.933594 6.667969 1207.917969 6.667969 L 1196.636719 6.667969 C 1191.074219 6.667969 1186.566406 11.179688 1186.566406 16.742188 L 1186.566406 115.027344 C 1199.992188 115.027344 1211.742188 117.78125 1221.8125 123.285156 C 1231.886719 128.789062 1240.808594 135.707031 1248.601562 144.03125 C 1256.386719 152.355469 1263.304688 161.488281 1269.347656 171.421875 C 1275.390625 181.359375 1281.03125 190.691406 1286.265625 199.417969 C 1291.503906 208.148438 1296.742188 215.601562 1301.976562 221.777344 C 1307.210938 227.957031 1312.78125 231.441406 1318.695312 232.25 L 1318.695312 233.054688 C 1304.726562 233.054688 1293.113281 230.304688 1283.851562 224.796875 C 1274.585938 219.296875 1266.660156 212.378906 1260.085938 204.050781 C 1253.503906 195.730469 1247.800781 186.730469 1242.964844 177.0625 C 1238.128906 167.394531 1233.15625 158.199219 1228.058594 149.46875 C 1222.957031 140.746094 1217.183594 133.292969 1210.738281 127.113281 C 1204.292969 120.9375 1196.234375 117.316406 1186.570312 116.238281 L 1186.570312 216.605469 C 1186.570312 225.691406 1179.203125 233.054688 1170.121094 233.054688 L 1138.609375 233.054688 C 1127.863281 233.054688 1147.542969 232.78125 1147.542969 216.941406 L 1147.542969 19.558594 C 1147.542969 10.660156 1154.757812 3.445312 1163.65625 3.445312 L 1207.917969 3.445312 C 1237.726562 3.445312 1260.082031 9.222656 1274.988281 20.765625 C 1289.890625 32.316406 1297.34375 47.089844 1297.34375 65.078125 C 1297.34375 81.191406 1291.96875 94.886719 1281.230469 106.164062 C 1270.484375 117.445312 1257.808594 121.109375 1237.992188 123.519531 Z M 1225.324219 125.097656 "/>
</clipPath>
<clipPath id="clip-32">
<path clip-rule="nonzero" d="M 0.398438 0.445312 L 183.800781 0.445312 L 183.800781 230.105469 L 0.398438 230.105469 Z M 0.398438 0.445312 "/>
</clipPath>
<clipPath id="clip-33">
<path clip-rule="nonzero" d="M 90.324219 122.097656 C 102.40625 119.148438 111.332031 112.230469 117.113281 101.355469 C 122.882812 90.480469 125.773438 77.386719 125.773438 62.078125 C 125.773438 41.9375 120.734375 27.167969 110.667969 17.765625 C 100.59375 8.371094 94.933594 3.667969 72.917969 3.667969 L 61.636719 3.667969 C 56.074219 3.667969 51.566406 8.179688 51.566406 13.742188 L 51.566406 112.027344 C 64.992188 112.027344 76.742188 114.78125 86.8125 120.285156 C 96.886719 125.789062 105.808594 132.707031 113.601562 141.03125 C 121.386719 149.355469 128.304688 158.488281 134.347656 168.421875 C 140.390625 178.359375 146.03125 187.691406 151.265625 196.417969 C 156.503906 205.148438 161.742188 212.601562 166.976562 218.777344 C 172.210938 224.957031 177.78125 228.441406 183.695312 229.25 L 183.695312 230.054688 C 169.726562 230.054688 158.113281 227.304688 148.851562 221.796875 C 139.585938 216.296875 131.660156 209.378906 125.085938 201.050781 C 118.503906 192.730469 112.800781 183.730469 107.964844 174.0625 C 103.128906 164.394531 98.15625 155.199219 93.058594 146.46875 C 87.957031 137.746094 82.183594 130.292969 75.738281 124.113281 C 69.292969 117.9375 61.234375 114.316406 51.570312 113.238281 L 51.570312 213.605469 C 51.570312 222.691406 44.203125 230.054688 35.121094 230.054688 L 3.609375 230.054688 C -7.136719 230.054688 12.542969 229.78125 12.542969 213.941406 L 12.542969 16.558594 C 12.542969 7.660156 19.757812 0.445312 28.65625 0.445312 L 72.917969 0.445312 C 102.726562 0.445312 125.082031 6.222656 139.988281 17.765625 C 154.890625 29.316406 162.34375 44.089844 162.34375 62.078125 C 162.34375 78.191406 156.96875 91.886719 146.230469 103.164062 C 135.484375 114.445312 122.808594 118.109375 102.992188 120.519531 Z M 90.324219 122.097656 "/>
</clipPath>
<clipPath id="clip-34">
<rect x="0" y="0" width="184" height="231"/>
</clipPath>
<g id="source-24" clip-path="url(#clip-34)">
<g clip-path="url(#clip-32)">
<g clip-path="url(#clip-33)">
<path fill-rule="nonzero" fill="rgb(100%, 100%, 100%)" fill-opacity="1" d="M 0.398438 0.445312 L 183.691406 0.445312 L 183.691406 230.105469 L 0.398438 230.105469 Z M 0.398438 0.445312 "/>
</g>
</g>
</g>
<clipPath id="clip-35">
<path clip-rule="nonzero" d="M 1347.25 3.316406 L 1500 3.316406 L 1500 233.589844 L 1347.25 233.589844 Z M 1347.25 3.316406 "/>
</clipPath>
<clipPath id="clip-36">
<path clip-rule="nonzero" d="M 1487.914062 106.5625 C 1487.914062 120.09375 1488.226562 108.179688 1483.75 108.179688 L 1407.75 108.179688 C 1401.300781 108.179688 1396.074219 113.410156 1396.074219 119.859375 L 1396.074219 218.152344 C 1396.074219 224.605469 1401.300781 229.832031 1407.75 229.832031 L 1498.390625 229.832031 C 1499.28125 229.832031 1500 230.550781 1500 231.441406 L 1500 231.453125 C 1500 232.335938 1499.285156 233.054688 1498.398438 233.058594 L 1350.597656 233.546875 C 1339.851562 233.546875 1359.519531 234.757812 1359.519531 217.4375 L 1359.519531 20.050781 C 1359.519531 4.253906 1339.851562 3.9375 1350.597656 3.9375 L 1498.386719 3.453125 C 1499.277344 3.449219 1500 4.167969 1500 5.0625 C 1500 5.949219 1499.28125 6.667969 1498.390625 6.667969 L 1407.75 6.667969 C 1401.300781 6.667969 1396.074219 11.898438 1396.074219 18.347656 L 1396.074219 93.277344 C 1396.074219 99.726562 1401.300781 104.957031 1407.75 104.957031 L 1483.75 104.957031 C 1488.378906 104.957031 1487.914062 92.53125 1487.914062 106.5625 "/>
</clipPath>
<clipPath id="clip-37">
<path clip-rule="nonzero" d="M 0.359375 0.320312 L 153 0.320312 L 153 230.589844 L 0.359375 230.589844 Z M 0.359375 0.320312 "/>
</clipPath>
<clipPath id="clip-38">
<path clip-rule="nonzero" d="M 140.914062 103.5625 C 140.914062 117.09375 141.226562 105.179688 136.75 105.179688 L 60.75 105.179688 C 54.300781 105.179688 49.074219 110.410156 49.074219 116.859375 L 49.074219 215.152344 C 49.074219 221.605469 54.300781 226.832031 60.75 226.832031 L 151.390625 226.832031 C 152.28125 226.832031 153 227.550781 153 228.441406 L 153 228.453125 C 153 229.335938 152.285156 230.054688 151.398438 230.058594 L 3.597656 230.546875 C -7.148438 230.546875 12.519531 231.757812 12.519531 214.4375 L 12.519531 17.050781 C 12.519531 1.253906 -7.148438 0.9375 3.597656 0.9375 L 151.386719 0.453125 C 152.277344 0.449219 153 1.167969 153 2.0625 C 153 2.949219 152.28125 3.667969 151.390625 3.667969 L 60.75 3.667969 C 54.300781 3.667969 49.074219 8.898438 49.074219 15.347656 L 49.074219 90.277344 C 49.074219 96.726562 54.300781 101.957031 60.75 101.957031 L 136.75 101.957031 C 141.378906 101.957031 140.914062 89.53125 140.914062 103.5625 "/>
</clipPath>
<clipPath id="clip-39">
<rect x="0" y="0" width="153" height="231"/>
</clipPath>
<g id="source-27" clip-path="url(#clip-39)">
<g clip-path="url(#clip-37)">
<g clip-path="url(#clip-38)">
<path fill-rule="nonzero" fill="rgb(100%, 100%, 100%)" fill-opacity="1" d="M 0.386719 0.453125 L 153 0.453125 L 153 230.589844 L 0.386719 230.589844 Z M 0.386719 0.453125 "/>
</g>
</g>
</g>
<clipPath id="clip-40">
<rect x="0" y="0" width="1500" height="236"/>
</clipPath>
<g id="source-29" clip-path="url(#clip-40)">
<g clip-path="url(#clip-0)">
<g clip-path="url(#clip-1)">
<use xlink:href="#source-6" transform="matrix(1, 0, 0, 1, 206, 3)"/>
</g>
</g>
<g clip-path="url(#clip-5)">
<g clip-path="url(#clip-6)">
<use xlink:href="#source-9" transform="matrix(1, 0, 0, 1, 381, 3)"/>
</g>
</g>
<g clip-path="url(#clip-10)">
<g clip-path="url(#clip-11)">
<use xlink:href="#source-12" transform="matrix(1, 0, 0, 1, 0, 1)"/>
</g>
</g>
<g clip-path="url(#clip-15)">
<g clip-path="url(#clip-16)">
<use xlink:href="#source-15" transform="matrix(1, 0, 0, 1, 623, 3)"/>
</g>
</g>
<g clip-path="url(#clip-20)">
<g clip-path="url(#clip-21)">
<use xlink:href="#source-18" transform="matrix(1, 0, 0, 1, 792, 1)"/>
</g>
</g>
<g clip-path="url(#clip-25)">
<g clip-path="url(#clip-26)">
<use xlink:href="#source-21" transform="matrix(1, 0, 0, 1, 1040, 3)"/>
</g>
</g>
<g clip-path="url(#clip-30)">
<g clip-path="url(#clip-31)">
<use xlink:href="#source-24" transform="matrix(1, 0, 0, 1, 1135, 3)"/>
</g>
</g>
<g clip-path="url(#clip-35)">
<g clip-path="url(#clip-36)">
<use xlink:href="#source-27" transform="matrix(1, 0, 0, 1, 1347, 3)"/>
</g>
</g>
</g>
</defs>
<path fill-rule="nonzero" fill="rgb(100%, 100%, 100%)" fill-opacity="1" d="M 0 0 L 1500 0 L 1500 262.5 L 0 262.5 Z M 0 0 "/>
<path fill-rule="nonzero" fill="rgb(1.959229%, 21.958923%, 5.099487%)" fill-opacity="1" d="M 0 0 L 1500 0 L 1500 262.5 L 0 262.5 Z M 0 0 "/>
<use xlink:href="#source-29" transform="matrix(1, 0, 0, 1, 0, 13)"/>
</svg>
